<svg width="194" height="31" viewBox="0 0 194 31" fill="none" xmlns="http://www.w3.org/2000/svg">
<path d="M191.845 10.4656V24.4043H190.313V10.4656H191.845ZM190.043 6.43343C190.043 6.14143 190.133 5.89667 190.313 5.69914C190.502 5.49302 190.76 5.38996 191.086 5.38996C191.412 5.38996 191.669 5.49302 191.858 5.69914C192.055 5.89667 192.154 6.14143 192.154 6.43343C192.154 6.71684 192.055 6.9616 191.858 7.16772C191.669 7.36525 191.412 7.46401 191.086 7.46401C190.76 7.46401 190.502 7.36525 190.313 7.16772C190.133 6.9616 190.043 6.71684 190.043 6.43343Z" fill="#525252"/>
<path d="M185.788 21.9051V14.7168C185.788 14.0555 185.651 13.4843 185.376 13.0034C185.102 12.5225 184.699 12.1532 184.167 11.8955C183.635 11.6379 182.978 11.5091 182.197 11.5091C181.477 11.5091 180.833 11.6379 180.267 11.8955C179.709 12.1446 179.267 12.4838 178.941 12.9132C178.624 13.3341 178.465 13.8021 178.465 14.3174L176.92 14.3045C176.92 13.7806 177.049 13.2739 177.306 12.7844C177.564 12.2949 177.929 11.8569 178.4 11.4704C178.872 11.0839 179.434 10.7791 180.087 10.5558C180.747 10.3239 181.472 10.2079 182.262 10.2079C183.257 10.2079 184.132 10.3754 184.887 10.7104C185.651 11.0453 186.247 11.5477 186.676 12.2176C187.105 12.8875 187.32 13.7291 187.32 14.7425V21.48C187.32 21.9609 187.354 22.459 187.423 22.9743C187.5 23.4896 187.607 23.9147 187.745 24.2497V24.4043H186.11C186.007 24.0951 185.926 23.7086 185.865 23.2448C185.814 22.7725 185.788 22.3259 185.788 21.9051ZM186.149 16.2884L186.174 17.4736H183.15C182.36 17.4736 181.652 17.5466 181.026 17.6926C180.408 17.83 179.885 18.0361 179.456 18.3109C179.027 18.5772 178.696 18.8992 178.465 19.2771C178.242 19.655 178.13 20.0844 178.13 20.5653C178.13 21.0634 178.255 21.5186 178.503 21.9309C178.761 22.3431 179.121 22.6737 179.585 22.9228C180.056 23.1633 180.614 23.2835 181.258 23.2835C182.116 23.2835 182.871 23.1246 183.523 22.8068C184.184 22.4891 184.729 22.0726 185.158 21.5573C185.587 21.042 185.874 20.4794 186.02 19.8697L186.689 20.7586C186.578 21.188 186.372 21.6303 186.071 22.0854C185.78 22.532 185.398 22.9528 184.926 23.3479C184.454 23.7344 183.896 24.0521 183.253 24.3012C182.618 24.5417 181.897 24.6619 181.09 24.6619C180.181 24.6619 179.387 24.4901 178.709 24.1466C178.04 23.8031 177.517 23.335 177.139 22.7424C176.77 22.1413 176.586 21.4628 176.586 20.707C176.586 20.02 176.732 19.4059 177.023 18.8649C177.315 18.3152 177.735 17.8515 178.285 17.4736C178.842 17.0871 179.512 16.7951 180.292 16.5976C181.082 16.3915 181.966 16.2884 182.944 16.2884H186.149Z" fill="#525252"/>
<path d="M170.289 10.4656V11.7281H163.313V10.4656H170.289ZM165.875 6.88431H167.406V21.0162C167.406 21.6603 167.492 22.1456 167.664 22.4719C167.835 22.7983 168.058 23.0173 168.333 23.1289C168.608 23.2406 168.904 23.2964 169.221 23.2964C169.453 23.2964 169.676 23.2835 169.89 23.2577C170.105 23.2234 170.298 23.189 170.47 23.1547L170.534 24.4558C170.345 24.5159 170.101 24.5631 169.8 24.5975C169.5 24.6404 169.2 24.6619 168.899 24.6619C168.307 24.6619 167.784 24.5545 167.329 24.3398C166.874 24.1166 166.518 23.7387 166.261 23.2062C166.003 22.6651 165.875 21.9309 165.875 21.0033V6.88431Z" fill="#525252"/>
<path d="M157.887 23.335C158.539 23.335 159.148 23.2148 159.715 22.9743C160.29 22.7253 160.762 22.3603 161.131 21.8793C161.508 21.3898 161.723 20.7929 161.774 20.0887H163.241C163.198 20.9733 162.928 21.7634 162.43 22.459C161.941 23.1461 161.298 23.6871 160.5 24.0822C159.71 24.4687 158.84 24.6619 157.887 24.6619C156.918 24.6619 156.059 24.4858 155.313 24.1337C154.575 23.7816 153.957 23.2921 153.46 22.6651C152.962 22.0296 152.584 21.291 152.327 20.4494C152.078 19.5992 151.954 18.6845 151.954 17.7055V17.1644C151.954 16.1853 152.078 15.275 152.327 14.4333C152.584 13.5831 152.962 12.8445 153.46 12.2176C153.957 11.5821 154.575 11.0882 155.313 10.7361C156.051 10.384 156.905 10.2079 157.874 10.2079C158.87 10.2079 159.762 10.4098 160.551 10.8134C161.349 11.2171 161.984 11.7882 162.456 12.5268C162.937 13.2653 163.198 14.1413 163.241 15.1548H161.774C161.731 14.4076 161.534 13.7635 161.182 13.2224C160.83 12.6814 160.367 12.2648 159.792 11.9728C159.217 11.6808 158.578 11.5348 157.874 11.5348C157.085 11.5348 156.411 11.6894 155.854 11.9986C155.296 12.2992 154.841 12.7157 154.489 13.2482C154.146 13.7721 153.893 14.3732 153.73 15.0517C153.567 15.7216 153.485 16.4258 153.485 17.1644V17.7055C153.485 18.4526 153.563 19.1654 153.717 19.8439C153.88 20.5138 154.133 21.1107 154.476 21.6346C154.828 22.1584 155.283 22.575 155.841 22.8841C156.407 23.1847 157.089 23.335 157.887 23.335Z" fill="#525252"/>
<path d="M145.807 24.6619C144.897 24.6619 144.061 24.4944 143.297 24.1595C142.542 23.8246 141.881 23.3522 141.315 22.7424C140.757 22.1327 140.324 21.4113 140.015 20.5782C139.715 19.7366 139.564 18.8176 139.564 17.8214V17.2675C139.564 16.1939 139.723 15.2235 140.041 14.3561C140.358 13.4886 140.796 12.7458 141.353 12.1274C141.911 11.5091 142.546 11.0367 143.258 10.7104C143.979 10.3754 144.734 10.2079 145.524 10.2079C146.407 10.2079 147.192 10.3668 147.879 10.6846C148.565 10.9938 149.14 11.4361 149.604 12.0115C150.076 12.5783 150.432 13.2525 150.672 14.034C150.912 14.8069 151.032 15.6615 151.032 16.5976V17.538H140.491V16.224H149.501V16.0436C149.483 15.2621 149.325 14.5321 149.024 13.8536C148.733 13.1666 148.295 12.6084 147.712 12.1789C147.128 11.7495 146.399 11.5348 145.524 11.5348C144.871 11.5348 144.271 11.6722 143.722 11.9471C143.181 12.2219 142.713 12.6169 142.319 13.1322C141.933 13.6389 141.632 14.2444 141.418 14.9486C141.212 15.6443 141.109 16.4172 141.109 17.2675V17.8214C141.109 18.5943 141.22 19.3157 141.444 19.9856C141.675 20.6469 142.001 21.2309 142.422 21.7376C142.851 22.2443 143.357 22.6394 143.94 22.9228C144.524 23.2062 145.167 23.3479 145.871 23.3479C146.695 23.3479 147.424 23.1976 148.059 22.897C148.694 22.5879 149.265 22.1026 149.771 21.4413L150.736 22.1885C150.436 22.6351 150.058 23.0473 149.604 23.4252C149.157 23.8031 148.621 24.1037 147.995 24.327C147.368 24.5503 146.639 24.6619 145.807 24.6619Z" fill="#525252"/>
<path d="M128.784 13.4414V24.4043H127.252V10.4656H128.72L128.784 13.4414ZM128.436 16.5718L127.754 16.1853C127.806 15.3609 127.973 14.5879 128.256 13.8665C128.539 13.1451 128.921 12.5096 129.402 11.9599C129.891 11.4103 130.461 10.9809 131.114 10.6717C131.774 10.3625 132.504 10.2079 133.302 10.2079C133.997 10.2079 134.619 10.3024 135.168 10.4914C135.717 10.6803 136.185 10.9809 136.571 11.3931C136.957 11.8054 137.249 12.3335 137.446 12.9776C137.652 13.6218 137.755 14.4076 137.755 15.3351V24.4043H136.21V15.3222C136.21 14.3603 136.077 13.6089 135.811 13.0678C135.545 12.5182 135.168 12.1274 134.679 11.8955C134.19 11.6636 133.61 11.5477 132.941 11.5477C132.203 11.5477 131.555 11.7109 130.998 12.0372C130.449 12.355 129.985 12.7715 129.608 13.2868C129.239 13.7935 128.956 14.3389 128.758 14.9229C128.561 15.4983 128.454 16.0479 128.436 16.5718Z" fill="#525252"/>
<path d="M115.609 13.4414V24.4043H114.078V10.4656H115.545L115.609 13.4414ZM115.262 16.5718L114.58 16.1853C114.631 15.3609 114.799 14.5879 115.082 13.8665C115.365 13.1451 115.747 12.5096 116.227 11.9599C116.716 11.4103 117.287 10.9809 117.939 10.6717C118.6 10.3625 119.329 10.2079 120.127 10.2079C120.822 10.2079 121.444 10.3024 121.993 10.4914C122.542 10.6803 123.01 10.9809 123.396 11.3931C123.782 11.8054 124.074 12.3335 124.271 12.9776C124.477 13.6218 124.58 14.4076 124.58 15.3351V24.4043H123.036V15.3222C123.036 14.3603 122.903 13.6089 122.637 13.0678C122.371 12.5182 121.993 12.1274 121.504 11.8955C121.015 11.6636 120.436 11.5477 119.767 11.5477C119.029 11.5477 118.381 11.7109 117.823 12.0372C117.274 12.355 116.811 12.7715 116.433 13.2868C116.064 13.7935 115.781 14.3389 115.584 14.9229C115.386 15.4983 115.279 16.0479 115.262 16.5718Z" fill="#525252"/>
<path d="M99.7709 17.6539V17.2288C99.7709 16.2154 99.9167 15.2793 100.208 14.4205C100.5 13.5616 100.916 12.8188 101.457 12.1918C102.006 11.5649 102.662 11.0796 103.426 10.7361C104.19 10.384 105.039 10.2079 105.975 10.2079C106.918 10.2079 107.772 10.384 108.536 10.7361C109.299 11.0796 109.956 11.5649 110.505 12.1918C111.054 12.8188 111.475 13.5616 111.766 14.4205C112.058 15.2793 112.204 16.2154 112.204 17.2288V17.6539C112.204 18.6673 112.058 19.6034 111.766 20.4623C111.475 21.3125 111.054 22.0511 110.505 22.678C109.964 23.305 109.312 23.7945 108.549 24.1466C107.785 24.4901 106.936 24.6619 106 24.6619C105.056 24.6619 104.203 24.4901 103.439 24.1466C102.675 23.7945 102.019 23.305 101.47 22.678C100.921 22.0511 100.5 21.3125 100.208 20.4623C99.9167 19.6034 99.7709 18.6673 99.7709 17.6539ZM101.302 17.2288V17.6539C101.302 18.4183 101.405 19.144 101.611 19.831C101.817 20.5095 102.118 21.115 102.512 21.6474C102.907 22.1713 103.396 22.5836 103.98 22.8841C104.563 23.1847 105.237 23.335 106 23.335C106.755 23.335 107.42 23.1847 107.995 22.8841C108.579 22.5836 109.068 22.1713 109.462 21.6474C109.857 21.115 110.153 20.5095 110.351 19.831C110.556 19.144 110.659 18.4183 110.659 17.6539V17.2288C110.659 16.473 110.556 15.7559 110.351 15.0775C110.153 14.399 109.853 13.7935 109.45 13.2611C109.055 12.7286 108.566 12.3078 107.982 11.9986C107.399 11.6894 106.73 11.5348 105.975 11.5348C105.219 11.5348 104.55 11.6894 103.967 11.9986C103.392 12.3078 102.903 12.7286 102.499 13.2611C102.105 13.7935 101.804 14.399 101.599 15.0775C101.401 15.7559 101.302 16.473 101.302 17.2288Z" fill="#525252"/>
<path d="M93.4823 23.335C94.1344 23.335 94.7437 23.2148 95.31 22.9743C95.8849 22.7253 96.3568 22.3603 96.7257 21.8793C97.1033 21.3898 97.3178 20.7929 97.3693 20.0887H98.8365C98.7936 20.9733 98.5233 21.7634 98.0257 22.459C97.5366 23.1461 96.8931 23.6871 96.0951 24.0822C95.3057 24.4687 94.4348 24.6619 93.4823 24.6619C92.5127 24.6619 91.6547 24.4858 90.9082 24.1337C90.1703 23.7816 89.5525 23.2921 89.0548 22.6651C88.5572 22.0296 88.1796 21.291 87.9222 20.4494C87.6734 19.5992 87.549 18.6845 87.549 17.7055V17.1644C87.549 16.1853 87.6734 15.275 87.9222 14.4333C88.1796 13.5831 88.5572 12.8445 89.0548 12.2176C89.5525 11.5821 90.1703 11.0882 90.9082 10.7361C91.6461 10.384 92.4999 10.2079 93.4695 10.2079C94.4648 10.2079 95.3572 10.4098 96.1466 10.8134C96.9445 11.2171 97.5795 11.7882 98.0514 12.5268C98.5319 13.2653 98.7936 14.1413 98.8365 15.1548H97.3693C97.3264 14.4076 97.129 13.7635 96.7772 13.2224C96.4254 12.6814 95.9621 12.2648 95.3872 11.9728C94.8123 11.6808 94.1731 11.5348 93.4695 11.5348C92.6801 11.5348 92.0065 11.6894 91.4488 11.9986C90.891 12.2992 90.4363 12.7157 90.0845 13.2482C89.7413 13.7721 89.4881 14.3732 89.3251 15.0517C89.1621 15.7216 89.0806 16.4258 89.0806 17.1644V17.7055C89.0806 18.4526 89.1578 19.1654 89.3122 19.8439C89.4753 20.5138 89.7284 21.1107 90.0716 21.6346C90.4234 22.1584 90.8782 22.575 91.4359 22.8841C92.0022 23.1847 92.6843 23.335 93.4823 23.335Z" fill="#525252"/>
<path d="M17.4895 10.1904H4.77124C4.15386 10.1795 3.5404 10.2908 2.96609 10.5178C2.39179 10.7448 1.86794 11.0832 1.42463 11.5134C0.981326 11.9436 0.627289 12.4573 0.382849 13.0248C0.13841 13.5924 0.00838377 14.2027 0.000235381 14.8206V14.8206V19.596C-0.00593243 20.204 0.109171 20.8071 0.338804 21.3701C0.568437 21.933 0.907985 22.4445 1.33756 22.8744C1.76714 23.3044 2.27811 23.6443 2.84055 23.8741C3.403 24.1039 4.0056 24.2192 4.61309 24.213H17.4632L14.02 20.7502V13.5213L17.4895 10.1904ZM29.9179 10.1904V6.28574H33.3874V22.3431C33.3781 22.8393 33.1768 23.3125 32.8258 23.6631C32.4749 24.0138 32.0018 24.2144 31.506 24.2229H20.5241C19.9166 24.229 19.314 24.1138 18.7516 23.884C18.1891 23.6542 17.6782 23.3143 17.2486 22.8843C16.819 22.4544 16.4795 21.9429 16.2498 21.38C16.0202 20.817 15.9051 20.2139 15.9113 19.6059V19.6059V14.8206C15.9224 13.5996 16.412 12.4317 17.2747 11.5683C18.1374 10.7048 19.3042 10.2148 20.5241 10.2036H26.3034L29.7729 13.6631L29.9179 10.1904ZM56.6724 14.6755V19.4574C56.6715 19.6283 56.7045 19.7977 56.7694 19.9557C56.8344 20.1138 56.93 20.2574 57.0507 20.3782C57.1714 20.499 57.3149 20.5947 57.4728 20.6597C57.6307 20.7247 57.7999 20.7577 57.9706 20.7568H58.9788L62.4483 24.2295H57.9673C56.704 24.2217 55.4944 23.7169 54.5999 22.824C53.7053 21.9311 53.1976 20.7219 53.1864 19.4574V6.28574H56.6724V8.59425H59.2721V12.0735H56.6724V14.6755ZM78.2045 24.2394H74.7218V13.5213H65.3248C65.1724 13.5195 65.0212 13.5482 64.8801 13.6058C64.739 13.6633 64.6108 13.7485 64.5031 13.8564C64.3953 13.9642 64.3102 14.0925 64.2527 14.2338C64.1952 14.375 64.1665 14.5263 64.1683 14.6788V19.4574C64.1678 19.6285 64.2012 19.7979 64.2665 19.956C64.3318 20.114 64.4277 20.2576 64.5487 20.3784C64.6697 20.4992 64.8134 20.5948 64.9714 20.6597C65.1295 20.7247 65.2989 20.7577 65.4698 20.7568H71.2523L74.7218 24.2295H65.4698C64.2087 24.2183 63.0025 23.7119 62.1108 22.8194C61.2191 21.9269 60.7132 20.7196 60.702 19.4574V14.6755C60.7132 13.4545 61.2028 12.2866 62.0655 11.4232C62.9281 10.5597 64.095 10.0697 65.3149 10.0585H76.31C76.8054 10.067 77.2782 10.2678 77.6286 10.6185C77.979 10.9692 78.1796 11.4424 78.188 11.9383L78.2045 24.2394ZM52.1749 24.2394H48.7053V13.5213H39.3116C39.1591 13.5191 39.0077 13.5475 38.8664 13.6049C38.7251 13.6622 38.5967 13.7474 38.4889 13.8554C38.381 13.9633 38.2959 14.0918 38.2386 14.2332C38.1813 14.3747 38.1529 14.5262 38.1551 14.6788V14.6788V19.4574C38.1542 19.63 38.1878 19.801 38.2539 19.9604C38.3201 20.1197 38.4175 20.2642 38.5403 20.3853C38.6631 20.5064 38.8089 20.6017 38.9691 20.6655C39.1293 20.7293 39.3007 20.7603 39.4731 20.7568H45.2523L48.7218 24.2295H39.4566C38.195 24.2191 36.988 23.7132 36.0955 22.8206C35.2031 21.928 34.6968 20.7202 34.6856 19.4574V14.6755C34.6967 13.4545 35.1863 12.2866 36.049 11.4232C36.9117 10.5597 38.0785 10.0697 39.2984 10.0585H50.2836C50.7791 10.067 51.2518 10.2678 51.6022 10.6185C51.9526 10.9692 52.1532 11.4424 52.1617 11.9383V11.9383L52.1749 24.2394ZM29.9179 13.5213H20.6691C19.9442 13.5213 19.3676 13.9566 19.3676 14.6788V19.596C19.3885 19.8958 19.5171 20.1779 19.7297 20.3901C19.9423 20.6023 20.2245 20.7302 20.5241 20.7502H29.9179V13.5213ZM14.02 20.7502H4.61309C4.31349 20.7302 4.03128 20.6023 3.81866 20.3901C3.60604 20.1779 3.47742 19.8958 3.45658 19.596V14.8206C3.45567 14.6479 3.48927 14.4768 3.55539 14.3172C3.62151 14.1577 3.71882 14.013 3.8416 13.8916C3.96439 13.7703 4.11017 13.6747 4.27038 13.6105C4.43059 13.5464 4.602 13.5149 4.77454 13.518H14.02L10.2605 17.1489L14.02 20.7502Z" fill="#009CFB"/>
</svg>
